<svg xmlns="http://www.w3.org/2000/svg" viewBox="0 0 512 512" role="img" aria-label="シロップ帖">
  <rect width="512" height="512" rx="96" fill="#fffaf3"/>
  <circle cx="376" cy="128" r="52" fill="#ffe77a"/>
  <path d="M193 90h126v44c0 32-22 56-49 64v45c68 16 116 80 116 156 0 34-28 62-62 62H188c-34 0-62-28-62-62 0-76 48-140 116-156v-45c-27-8-49-32-49-64V90Z" fill="#f7d8c6"/>
  <path d="M209 119h94v27c0 26-21 47-47 47s-47-21-47-47v-27Z" fill="#ffffff" opacity=".86"/>
  <path d="M153 354c21-58 69-92 103-92s82 34 103 92v45c0 19-16 35-35 35H188c-19 0-35-16-35-35v-45Z" fill="#e64155"/>
  <path d="M179 332c24-37 55-55 77-55s53 18 77 55c-27 13-50 19-77 19s-50-6-77-19Z" fill="#f36f63"/>
  <rect x="184" y="342" width="144" height="66" rx="16" fill="#fffaf3"/>
  <text x="256" y="386" text-anchor="middle" font-family="Arial, sans-serif" font-size="42" font-weight="900" fill="#231816">1:2</text>
  <circle cx="220" cy="294" r="8" fill="#fffaf3" opacity=".85"/>
  <circle cx="292" cy="314" r="7" fill="#fffaf3" opacity=".78"/>
  <circle cx="252" cy="328" r="5" fill="#fffaf3" opacity=".72"/>
</svg>
